<?xml version="1.0" encoding="UTF-8"?><svg id="Layer_2" xmlns="http://www.w3.org/2000/svg" xmlns:xlink="http://www.w3.org/1999/xlink" viewBox="0 0 673.83 720"><defs><style>.cls-1{fill:url(#linear-gradient-2);}.cls-2{fill:url(#linear-gradient);}</style><linearGradient id="linear-gradient" x1="-9.01" y1="28.2" x2="765.12" y2="668.38" gradientUnits="userSpaceOnUse"><stop offset="0" stop-color="#88f7f0"/><stop offset="1" stop-color="#048fff"/></linearGradient><linearGradient id="linear-gradient-2" x1="33.95" y1="-23.75" x2="808.09" y2="616.42" xlink:href="#linear-gradient"/></defs><g id="LOGOs"><g><path class="cls-2" d="M335.65,720c70.33,0,338.18-175.05,338.18-540.33,0-27.21-16.49-51.81-41.41-62.16L362.88,5.2c-8.25-3.51-17.08-5.2-25.91-5.2s-17.6,2.94-25.89,6.45L41.57,118.76C16.47,129.11,0,153.7,0,179.67c0,362.6,266.02,540.33,335.65,540.33Zm1.26-652.63l269.53,113.57c0,243.98-138.11,416.93-269.53,471.68C200.04,595.62,67.38,418.46,67.38,180.94L336.91,67.37Z"/><polygon class="cls-1" points="513.77 205.32 513.77 248.25 336.91 297.79 160.06 248.25 160.06 205.32 513.77 205.32"/></g></g></svg>