<?xml version="1.0" standalone="no"?>
<!DOCTYPE svg PUBLIC "-//W3C//DTD SVG 20010904//EN"
 "http://www.w3.org/TR/2001/REC-SVG-20010904/DTD/svg10.dtd">
<svg version="1.0" xmlns="http://www.w3.org/2000/svg"
 width="1441.000000pt" height="1441.000000pt" viewBox="0 0 1441.000000 1441.000000"
 preserveAspectRatio="xMidYMid meet">
<metadata>
Created by potrace 1.14, written by Peter Selinger 2001-2017
</metadata>
<g transform="translate(0.000000,1441.000000) scale(0.100000,-0.100000)"
fill="#000000" stroke="none">
<path d="M7110 14403 c-107 -14 -317 -74 -424 -122 -23 -11 -93 -40 -156 -66
-63 -26 -128 -53 -145 -60 -16 -8 -140 -60 -275 -115 -135 -56 -258 -108 -275
-115 -16 -7 -66 -27 -110 -45 -44 -18 -109 -46 -145 -61 -36 -15 -472 -197
-970 -404 -980 -408 -1060 -441 -1105 -461 -16 -7 -167 -70 -335 -139 -168
-69 -318 -132 -335 -140 -16 -7 -82 -34 -145 -60 -63 -26 -128 -53 -145 -60
-16 -8 -167 -71 -335 -140 -168 -70 -324 -135 -347 -146 -24 -10 -45 -19 -48
-19 -3 0 -24 -9 -48 -19 -23 -11 -148 -63 -277 -116 -253 -104 -357 -156 -466
-231 -87 -61 -255 -228 -317 -316 -110 -156 -191 -346 -229 -538 -19 -95 -14
-867 6 -1055 3 -22 8 -89 11 -150 4 -60 8 -126 10 -145 2 -19 6 -75 10 -124 4
-49 8 -96 10 -105 1 -9 6 -52 9 -96 4 -44 9 -91 11 -105 5 -36 15 -117 20
-175 3 -27 7 -61 10 -75 2 -14 7 -45 10 -70 8 -56 40 -277 50 -340 3 -14 7
-42 10 -64 4 -21 9 -48 11 -60 2 -11 9 -48 14 -81 15 -89 49 -263 76 -390 2
-11 6 -31 9 -45 7 -35 12 -58 25 -115 6 -27 13 -57 15 -65 82 -366 197 -777
332 -1185 48 -143 90 -267 94 -275 4 -8 29 -73 55 -145 26 -71 55 -149 65
-172 11 -23 19 -44 19 -47 0 -16 266 -633 299 -693 6 -10 51 -101 100 -203 86
-176 179 -355 241 -465 15 -27 39 -70 52 -95 153 -276 449 -746 659 -1045 503
-715 1167 -1452 1809 -2005 41 -36 80 -69 86 -75 49 -44 284 -231 394 -313 74
-56 140 -106 145 -110 40 -32 232 -163 330 -227 66 -43 143 -92 170 -110 289
-188 790 -430 1055 -511 30 -9 74 -22 96 -30 145 -46 384 -69 524 -50 274 37
715 202 1085 406 33 18 78 43 100 55 22 12 76 43 120 69 44 26 89 53 100 59
11 7 118 76 237 154 192 126 249 165 335 231 12 9 31 24 43 32 53 37 391 300
410 320 3 3 50 43 105 90 403 342 932 874 1232 1241 7 8 32 37 55 65 70 82 78
93 193 239 119 151 300 391 331 440 10 17 21 32 25 35 8 6 207 299 276 405 52
80 251 404 283 460 396 694 632 1195 892 1890 105 281 317 941 342 1069 3 12
18 73 35 136 33 126 134 558 147 630 4 25 8 47 9 50 1 3 5 25 10 50 5 25 9 47
10 50 1 3 5 25 9 50 5 25 10 54 12 65 20 97 83 484 90 545 2 19 6 51 8 70 3
19 8 58 11 85 4 28 8 61 10 75 2 14 7 50 10 80 3 30 8 71 10 90 7 62 15 143
20 200 2 30 7 78 10 105 3 28 8 82 10 120 3 39 7 99 10 135 27 339 40 1058 23
1190 -13 91 -54 240 -93 333 -32 75 -135 262 -154 277 -3 3 -24 27 -46 55
-161 201 -324 311 -675 455 -96 40 -193 80 -215 90 -22 9 -146 61 -275 114
-129 54 -248 104 -265 111 -16 7 -329 137 -695 289 -366 152 -674 281 -685
285 -11 5 -36 16 -55 24 -19 8 -129 54 -245 102 -115 47 -223 92 -240 100 -16
7 -113 47 -215 89 -102 42 -194 81 -205 86 -11 5 -227 95 -480 200 -253 105
-469 195 -480 199 -66 29 -111 47 -300 126 -115 47 -223 93 -240 100 -116 51
-692 287 -743 304 -69 24 -163 46 -232 56 -50 8 -241 13 -280 8z m108 -1353
c9 -6 103 -46 207 -89 265 -110 763 -319 805 -338 19 -9 60 -26 90 -38 30 -12
287 -120 570 -240 283 -120 574 -242 645 -272 72 -30 143 -61 159 -69 16 -8
33 -14 37 -14 5 0 32 -11 61 -24 29 -14 141 -61 248 -106 107 -45 209 -87 225
-95 17 -7 59 -25 95 -40 126 -52 376 -158 425 -179 28 -12 445 -189 928 -392
l879 -369 -6 -270 c-4 -148 -8 -299 -11 -335 -2 -36 -7 -110 -10 -165 -3 -55
-7 -125 -10 -155 -2 -30 -7 -91 -10 -135 -3 -44 -8 -99 -11 -122 -9 -89 -15
-139 -20 -178 -2 -22 -7 -60 -9 -85 -3 -48 -33 -278 -40 -320 -3 -14 -7 -45
-10 -70 -3 -25 -8 -56 -11 -70 -3 -14 -8 -38 -10 -55 -4 -34 -12 -80 -18 -110
-2 -11 -7 -40 -11 -65 -4 -25 -9 -54 -11 -65 -2 -11 -7 -33 -9 -50 -14 -80
-57 -293 -65 -320 -5 -16 -11 -43 -14 -60 -2 -16 -18 -88 -35 -160 -167 -706
-391 -1368 -686 -2030 -97 -218 -320 -660 -406 -807 -16 -27 -29 -51 -29 -53
0 -7 -238 -404 -288 -480 -25 -38 -66 -101 -91 -140 -288 -442 -685 -944
-1051 -1328 -173 -181 -444 -445 -555 -538 -22 -19 -47 -41 -55 -49 -8 -8 -40
-35 -70 -60 -30 -25 -57 -47 -60 -51 -3 -3 -54 -45 -115 -94 -481 -389 -1036
-732 -1549 -959 -129 -57 -99 -62 -343 51 -393 182 -800 426 -1187 710 -72 54
-133 100 -136 103 -3 3 -36 30 -75 60 -82 64 -231 186 -261 215 -11 11 -50 45
-85 75 -226 195 -589 563 -824 836 -396 458 -778 996 -1085 1529 -154 266
-358 660 -464 895 -21 47 -42 92 -46 101 -5 9 -27 61 -50 115 -23 54 -48 113
-56 129 -97 217 -286 747 -398 1115 -51 169 -160 578 -181 678 -2 9 -12 58
-24 107 -11 50 -27 126 -36 170 -18 85 -20 93 -35 170 -5 28 -12 61 -15 75 -3
14 -8 43 -10 65 -3 22 -8 47 -10 55 -2 8 -6 29 -9 45 -3 17 -14 86 -25 155
-11 69 -23 148 -26 175 -3 28 -10 75 -15 105 -5 30 -11 82 -15 115 -3 33 -8
74 -10 90 -3 17 -7 50 -9 75 -24 216 -41 425 -51 600 -3 52 -8 120 -10 150 -2
30 -7 181 -11 336 l-7 281 64 25 c68 27 1333 560 1384 583 17 8 100 43 185 78
411 171 958 402 1027 433 28 13 54 24 57 24 4 0 25 9 49 19 23 10 114 49 202
86 88 36 179 75 202 86 24 10 45 19 48 19 2 0 28 11 57 24 29 13 152 65 273
116 270 112 329 137 380 160 22 9 108 46 190 80 83 34 166 69 185 77 113 49
477 202 507 214 15 6 41 16 58 24 16 7 80 34 140 60 151 63 160 67 162 66 2 0
51 22 110 49 60 27 109 49 111 49 1 1 10 -4 20 -9z"/>
<path d="M3663 9870 l0 -430 66 -19 c36 -11 102 -29 146 -41 44 -12 94 -25
110 -31 17 -5 89 -25 160 -45 72 -19 159 -43 195 -54 36 -10 139 -39 230 -64
91 -25 179 -50 195 -55 28 -9 562 -158 595 -166 8 -3 40 -11 70 -20 30 -9 79
-23 109 -31 53 -14 328 -91 426 -119 360 -102 398 -113 430 -120 12 -3 427
-120 505 -143 30 -9 60 -17 65 -18 6 -1 61 -16 123 -34 l113 -31 217 61 c239
68 225 64 302 84 61 16 637 178 715 201 46 13 290 81 325 90 8 2 112 31 230
65 198 56 543 152 900 252 80 22 165 46 190 53 25 8 137 39 250 70 113 31 225
62 250 70 25 7 70 21 101 29 l56 16 0 430 0 430 -3537 0 -3537 0 0 -430z"/>
</g>
</svg>
